<mxfile host="app.diagrams.net" modified="2022-05-05T00:08:04.407Z" agent="5.0 (X11; Linux x86_64) AppleWebKit/537.36 (KHTML, like Gecko) Chrome/101.0.4951.41 Safari/537.36" etag="p1KYu911ViEw4dSjZzSI" version="18.0.0" type="github">
  <diagram id="iAbyK8pKXisrJIql5Mq7" name="Page-1">
    <mxGraphModel dx="1990" dy="712" grid="1" gridSize="10" guides="1" tooltips="1" connect="1" arrows="1" fold="1" page="1" pageScale="1" pageWidth="827" pageHeight="1169" math="0" shadow="0">
      <root>
        <mxCell id="0" />
        <mxCell id="1" parent="0" />
        <mxCell id="l1szmI_GFWI639Pi0zfL-3" value="" style="edgeStyle=orthogonalEdgeStyle;rounded=0;orthogonalLoop=1;jettySize=auto;html=1;" edge="1" parent="1" source="l1szmI_GFWI639Pi0zfL-1" target="l1szmI_GFWI639Pi0zfL-2">
          <mxGeometry relative="1" as="geometry" />
        </mxCell>
        <mxCell id="l1szmI_GFWI639Pi0zfL-5" value="" style="edgeStyle=orthogonalEdgeStyle;rounded=0;orthogonalLoop=1;jettySize=auto;html=1;" edge="1" parent="1" source="l1szmI_GFWI639Pi0zfL-1" target="l1szmI_GFWI639Pi0zfL-4">
          <mxGeometry relative="1" as="geometry" />
        </mxCell>
        <mxCell id="l1szmI_GFWI639Pi0zfL-1" value="LandingPage" style="whiteSpace=wrap;html=1;aspect=fixed;" vertex="1" parent="1">
          <mxGeometry x="40" y="40" width="80" height="80" as="geometry" />
        </mxCell>
        <mxCell id="l1szmI_GFWI639Pi0zfL-13" value="" style="edgeStyle=orthogonalEdgeStyle;rounded=0;orthogonalLoop=1;jettySize=auto;html=1;" edge="1" parent="1" source="l1szmI_GFWI639Pi0zfL-2" target="l1szmI_GFWI639Pi0zfL-12">
          <mxGeometry relative="1" as="geometry" />
        </mxCell>
        <mxCell id="l1szmI_GFWI639Pi0zfL-2" value="Sign In" style="shape=step;perimeter=stepPerimeter;whiteSpace=wrap;html=1;fixedSize=1;" vertex="1" parent="1">
          <mxGeometry x="180" y="40" width="120" height="80" as="geometry" />
        </mxCell>
        <mxCell id="l1szmI_GFWI639Pi0zfL-7" value="" style="edgeStyle=orthogonalEdgeStyle;rounded=0;orthogonalLoop=1;jettySize=auto;html=1;" edge="1" parent="1" source="l1szmI_GFWI639Pi0zfL-4" target="l1szmI_GFWI639Pi0zfL-6">
          <mxGeometry relative="1" as="geometry" />
        </mxCell>
        <mxCell id="l1szmI_GFWI639Pi0zfL-4" value="Sign Up" style="shape=step;perimeter=stepPerimeter;whiteSpace=wrap;html=1;fixedSize=1;" vertex="1" parent="1">
          <mxGeometry x="20" y="480" width="120" height="80" as="geometry" />
        </mxCell>
        <mxCell id="l1szmI_GFWI639Pi0zfL-9" value="" style="edgeStyle=orthogonalEdgeStyle;rounded=0;orthogonalLoop=1;jettySize=auto;html=1;" edge="1" parent="1" source="l1szmI_GFWI639Pi0zfL-6" target="l1szmI_GFWI639Pi0zfL-8">
          <mxGeometry relative="1" as="geometry" />
        </mxCell>
        <mxCell id="l1szmI_GFWI639Pi0zfL-6" value="registerPage" style="whiteSpace=wrap;html=1;" vertex="1" parent="1">
          <mxGeometry x="220" y="490" width="120" height="60" as="geometry" />
        </mxCell>
        <mxCell id="l1szmI_GFWI639Pi0zfL-11" value="" style="edgeStyle=orthogonalEdgeStyle;rounded=0;orthogonalLoop=1;jettySize=auto;html=1;" edge="1" parent="1" source="l1szmI_GFWI639Pi0zfL-8" target="l1szmI_GFWI639Pi0zfL-10">
          <mxGeometry relative="1" as="geometry" />
        </mxCell>
        <mxCell id="l1szmI_GFWI639Pi0zfL-8" value="verificationPage" style="whiteSpace=wrap;html=1;" vertex="1" parent="1">
          <mxGeometry x="420" y="490" width="120" height="60" as="geometry" />
        </mxCell>
        <mxCell id="l1szmI_GFWI639Pi0zfL-27" value="" style="edgeStyle=orthogonalEdgeStyle;rounded=0;orthogonalLoop=1;jettySize=auto;html=1;" edge="1" parent="1" source="l1szmI_GFWI639Pi0zfL-10" target="l1szmI_GFWI639Pi0zfL-26">
          <mxGeometry relative="1" as="geometry" />
        </mxCell>
        <mxCell id="l1szmI_GFWI639Pi0zfL-10" value="dashboardPage" style="whiteSpace=wrap;html=1;" vertex="1" parent="1">
          <mxGeometry x="620" y="490" width="120" height="60" as="geometry" />
        </mxCell>
        <mxCell id="l1szmI_GFWI639Pi0zfL-16" value="" style="edgeStyle=orthogonalEdgeStyle;rounded=0;orthogonalLoop=1;jettySize=auto;html=1;" edge="1" parent="1" source="l1szmI_GFWI639Pi0zfL-12" target="l1szmI_GFWI639Pi0zfL-15">
          <mxGeometry relative="1" as="geometry" />
        </mxCell>
        <mxCell id="l1szmI_GFWI639Pi0zfL-19" value="" style="edgeStyle=orthogonalEdgeStyle;rounded=0;orthogonalLoop=1;jettySize=auto;html=1;" edge="1" parent="1" source="l1szmI_GFWI639Pi0zfL-12" target="l1szmI_GFWI639Pi0zfL-18">
          <mxGeometry relative="1" as="geometry" />
        </mxCell>
        <mxCell id="l1szmI_GFWI639Pi0zfL-12" value="loginPage" style="whiteSpace=wrap;html=1;" vertex="1" parent="1">
          <mxGeometry x="380" y="50" width="120" height="60" as="geometry" />
        </mxCell>
        <mxCell id="l1szmI_GFWI639Pi0zfL-17" style="edgeStyle=orthogonalEdgeStyle;rounded=0;orthogonalLoop=1;jettySize=auto;html=1;entryX=1;entryY=0.5;entryDx=0;entryDy=0;exitX=1;exitY=0.5;exitDx=0;exitDy=0;" edge="1" parent="1" source="l1szmI_GFWI639Pi0zfL-15" target="l1szmI_GFWI639Pi0zfL-10">
          <mxGeometry relative="1" as="geometry" />
        </mxCell>
        <mxCell id="l1szmI_GFWI639Pi0zfL-23" value="" style="edgeStyle=orthogonalEdgeStyle;rounded=0;orthogonalLoop=1;jettySize=auto;html=1;" edge="1" parent="1" source="l1szmI_GFWI639Pi0zfL-15" target="l1szmI_GFWI639Pi0zfL-22">
          <mxGeometry relative="1" as="geometry" />
        </mxCell>
        <mxCell id="l1szmI_GFWI639Pi0zfL-15" value="isLogin?" style="rhombus;whiteSpace=wrap;html=1;" vertex="1" parent="1">
          <mxGeometry x="600" y="40" width="80" height="80" as="geometry" />
        </mxCell>
        <mxCell id="l1szmI_GFWI639Pi0zfL-21" value="" style="edgeStyle=orthogonalEdgeStyle;rounded=0;orthogonalLoop=1;jettySize=auto;html=1;" edge="1" parent="1" source="l1szmI_GFWI639Pi0zfL-18" target="l1szmI_GFWI639Pi0zfL-20">
          <mxGeometry relative="1" as="geometry" />
        </mxCell>
        <mxCell id="l1szmI_GFWI639Pi0zfL-18" value="forgetPassword" style="shape=step;perimeter=stepPerimeter;whiteSpace=wrap;html=1;fixedSize=1;" vertex="1" parent="1">
          <mxGeometry x="375" y="250" width="130" height="80" as="geometry" />
        </mxCell>
        <mxCell id="l1szmI_GFWI639Pi0zfL-25" style="edgeStyle=orthogonalEdgeStyle;rounded=0;orthogonalLoop=1;jettySize=auto;html=1;entryX=1;entryY=0.5;entryDx=0;entryDy=0;" edge="1" parent="1" source="l1szmI_GFWI639Pi0zfL-20" target="l1szmI_GFWI639Pi0zfL-10">
          <mxGeometry relative="1" as="geometry" />
        </mxCell>
        <mxCell id="l1szmI_GFWI639Pi0zfL-20" value="forgetPasswordPage" style="whiteSpace=wrap;html=1;" vertex="1" parent="1">
          <mxGeometry x="600" y="260" width="120" height="60" as="geometry" />
        </mxCell>
        <mxCell id="l1szmI_GFWI639Pi0zfL-24" style="edgeStyle=orthogonalEdgeStyle;rounded=0;orthogonalLoop=1;jettySize=auto;html=1;entryX=1;entryY=0.5;entryDx=0;entryDy=0;exitX=1;exitY=0.5;exitDx=0;exitDy=0;" edge="1" parent="1" source="l1szmI_GFWI639Pi0zfL-22" target="l1szmI_GFWI639Pi0zfL-20">
          <mxGeometry relative="1" as="geometry" />
        </mxCell>
        <mxCell id="l1szmI_GFWI639Pi0zfL-22" value="&lt;span style=&quot;&quot;&gt;forgetPassword&lt;/span&gt;" style="shape=step;perimeter=stepPerimeter;whiteSpace=wrap;html=1;fixedSize=1;" vertex="1" parent="1">
          <mxGeometry x="580" y="140" width="130" height="80" as="geometry" />
        </mxCell>
        <mxCell id="l1szmI_GFWI639Pi0zfL-29" value="" style="edgeStyle=orthogonalEdgeStyle;rounded=0;orthogonalLoop=1;jettySize=auto;html=1;" edge="1" parent="1" source="l1szmI_GFWI639Pi0zfL-26" target="l1szmI_GFWI639Pi0zfL-28">
          <mxGeometry relative="1" as="geometry" />
        </mxCell>
        <mxCell id="l1szmI_GFWI639Pi0zfL-31" value="" style="edgeStyle=orthogonalEdgeStyle;rounded=0;orthogonalLoop=1;jettySize=auto;html=1;" edge="1" parent="1" source="l1szmI_GFWI639Pi0zfL-26" target="l1szmI_GFWI639Pi0zfL-30">
          <mxGeometry relative="1" as="geometry" />
        </mxCell>
        <mxCell id="l1szmI_GFWI639Pi0zfL-26" value="isFirstLogin?" style="rhombus;whiteSpace=wrap;html=1;" vertex="1" parent="1">
          <mxGeometry x="625" y="620" width="110" height="80" as="geometry" />
        </mxCell>
        <mxCell id="l1szmI_GFWI639Pi0zfL-43" value="" style="edgeStyle=orthogonalEdgeStyle;rounded=0;orthogonalLoop=1;jettySize=auto;html=1;startArrow=none;" edge="1" parent="1" source="l1szmI_GFWI639Pi0zfL-46" target="l1szmI_GFWI639Pi0zfL-42">
          <mxGeometry relative="1" as="geometry" />
        </mxCell>
        <mxCell id="l1szmI_GFWI639Pi0zfL-44" style="edgeStyle=orthogonalEdgeStyle;rounded=0;orthogonalLoop=1;jettySize=auto;html=1;entryX=0;entryY=0.5;entryDx=0;entryDy=0;exitX=0.5;exitY=0;exitDx=0;exitDy=0;" edge="1" parent="1" source="l1szmI_GFWI639Pi0zfL-46" target="l1szmI_GFWI639Pi0zfL-40">
          <mxGeometry relative="1" as="geometry">
            <mxPoint x="1260" y="950" as="sourcePoint" />
            <Array as="points">
              <mxPoint x="990" y="545" />
            </Array>
          </mxGeometry>
        </mxCell>
        <mxCell id="l1szmI_GFWI639Pi0zfL-47" value="" style="edgeStyle=orthogonalEdgeStyle;rounded=0;orthogonalLoop=1;jettySize=auto;html=1;" edge="1" parent="1" source="l1szmI_GFWI639Pi0zfL-28" target="l1szmI_GFWI639Pi0zfL-46">
          <mxGeometry relative="1" as="geometry" />
        </mxCell>
        <mxCell id="l1szmI_GFWI639Pi0zfL-28" value="selectClassToStart" style="whiteSpace=wrap;html=1;" vertex="1" parent="1">
          <mxGeometry x="810" y="630" width="120" height="60" as="geometry" />
        </mxCell>
        <mxCell id="l1szmI_GFWI639Pi0zfL-33" value="" style="edgeStyle=orthogonalEdgeStyle;rounded=0;orthogonalLoop=1;jettySize=auto;html=1;" edge="1" parent="1" source="l1szmI_GFWI639Pi0zfL-30" target="l1szmI_GFWI639Pi0zfL-32">
          <mxGeometry relative="1" as="geometry" />
        </mxCell>
        <mxCell id="l1szmI_GFWI639Pi0zfL-35" value="" style="edgeStyle=orthogonalEdgeStyle;rounded=0;orthogonalLoop=1;jettySize=auto;html=1;" edge="1" parent="1" source="l1szmI_GFWI639Pi0zfL-30" target="l1szmI_GFWI639Pi0zfL-34">
          <mxGeometry relative="1" as="geometry" />
        </mxCell>
        <mxCell id="l1szmI_GFWI639Pi0zfL-30" value="haveATourInProgress?" style="rhombus;whiteSpace=wrap;html=1;" vertex="1" parent="1">
          <mxGeometry x="610" y="780" width="140" height="100" as="geometry" />
        </mxCell>
        <mxCell id="l1szmI_GFWI639Pi0zfL-49" style="edgeStyle=orthogonalEdgeStyle;rounded=0;orthogonalLoop=1;jettySize=auto;html=1;exitX=1;exitY=0.5;exitDx=0;exitDy=0;entryX=0.5;entryY=1;entryDx=0;entryDy=0;" edge="1" parent="1" source="l1szmI_GFWI639Pi0zfL-32" target="l1szmI_GFWI639Pi0zfL-46">
          <mxGeometry relative="1" as="geometry" />
        </mxCell>
        <mxCell id="l1szmI_GFWI639Pi0zfL-32" value="continueTour" style="shape=step;perimeter=stepPerimeter;whiteSpace=wrap;html=1;fixedSize=1;" vertex="1" parent="1">
          <mxGeometry x="840" y="790" width="120" height="80" as="geometry" />
        </mxCell>
        <mxCell id="l1szmI_GFWI639Pi0zfL-37" value="" style="edgeStyle=orthogonalEdgeStyle;rounded=0;orthogonalLoop=1;jettySize=auto;html=1;" edge="1" parent="1" source="l1szmI_GFWI639Pi0zfL-34" target="l1szmI_GFWI639Pi0zfL-36">
          <mxGeometry relative="1" as="geometry" />
        </mxCell>
        <mxCell id="l1szmI_GFWI639Pi0zfL-39" value="" style="edgeStyle=orthogonalEdgeStyle;rounded=0;orthogonalLoop=1;jettySize=auto;html=1;" edge="1" parent="1" source="l1szmI_GFWI639Pi0zfL-34" target="l1szmI_GFWI639Pi0zfL-38">
          <mxGeometry relative="1" as="geometry" />
        </mxCell>
        <mxCell id="l1szmI_GFWI639Pi0zfL-34" value="takeTour?" style="rhombus;whiteSpace=wrap;html=1;" vertex="1" parent="1">
          <mxGeometry x="610" y="960" width="140" height="100" as="geometry" />
        </mxCell>
        <mxCell id="l1szmI_GFWI639Pi0zfL-50" style="edgeStyle=orthogonalEdgeStyle;rounded=0;orthogonalLoop=1;jettySize=auto;html=1;exitX=1;exitY=0.5;exitDx=0;exitDy=0;entryX=0.5;entryY=1;entryDx=0;entryDy=0;" edge="1" parent="1" source="l1szmI_GFWI639Pi0zfL-36" target="l1szmI_GFWI639Pi0zfL-46">
          <mxGeometry relative="1" as="geometry" />
        </mxCell>
        <mxCell id="l1szmI_GFWI639Pi0zfL-36" value="startTour" style="shape=step;perimeter=stepPerimeter;whiteSpace=wrap;html=1;fixedSize=1;" vertex="1" parent="1">
          <mxGeometry x="840" y="970" width="120" height="80" as="geometry" />
        </mxCell>
        <mxCell id="l1szmI_GFWI639Pi0zfL-38" value="dashboardPage" style="whiteSpace=wrap;html=1;" vertex="1" parent="1">
          <mxGeometry x="620" y="1160" width="120" height="60" as="geometry" />
        </mxCell>
        <mxCell id="l1szmI_GFWI639Pi0zfL-57" value="" style="edgeStyle=orthogonalEdgeStyle;rounded=0;orthogonalLoop=1;jettySize=auto;html=1;" edge="1" parent="1" source="l1szmI_GFWI639Pi0zfL-40" target="l1szmI_GFWI639Pi0zfL-56">
          <mxGeometry relative="1" as="geometry" />
        </mxCell>
        <mxCell id="l1szmI_GFWI639Pi0zfL-40" value="FinanceiroClass" style="shape=step;perimeter=stepPerimeter;whiteSpace=wrap;html=1;fixedSize=1;" vertex="1" parent="1">
          <mxGeometry x="1070" y="505" width="140" height="80" as="geometry" />
        </mxCell>
        <mxCell id="l1szmI_GFWI639Pi0zfL-42" value="LifeStyleClass" style="shape=step;perimeter=stepPerimeter;whiteSpace=wrap;html=1;fixedSize=1;" vertex="1" parent="1">
          <mxGeometry x="1070" y="620" width="140" height="80" as="geometry" />
        </mxCell>
        <mxCell id="l1szmI_GFWI639Pi0zfL-46" value="journey" style="ellipse;whiteSpace=wrap;html=1;" vertex="1" parent="1">
          <mxGeometry x="960" y="630" width="60" height="60" as="geometry" />
        </mxCell>
        <mxCell id="l1szmI_GFWI639Pi0zfL-48" value="" style="edgeStyle=orthogonalEdgeStyle;rounded=0;orthogonalLoop=1;jettySize=auto;html=1;endArrow=none;" edge="1" parent="1" source="l1szmI_GFWI639Pi0zfL-28" target="l1szmI_GFWI639Pi0zfL-46">
          <mxGeometry relative="1" as="geometry">
            <mxPoint x="930" y="660" as="sourcePoint" />
            <mxPoint x="1090" y="660" as="targetPoint" />
          </mxGeometry>
        </mxCell>
        <mxCell id="l1szmI_GFWI639Pi0zfL-53" value="" style="edgeStyle=orthogonalEdgeStyle;rounded=0;orthogonalLoop=1;jettySize=auto;html=1;" edge="1" parent="1" source="l1szmI_GFWI639Pi0zfL-51" target="l1szmI_GFWI639Pi0zfL-52">
          <mxGeometry relative="1" as="geometry" />
        </mxCell>
        <mxCell id="l1szmI_GFWI639Pi0zfL-51" value="Client" style="whiteSpace=wrap;html=1;" vertex="1" parent="1">
          <mxGeometry x="950" y="60" width="120" height="60" as="geometry" />
        </mxCell>
        <mxCell id="l1szmI_GFWI639Pi0zfL-55" value="" style="edgeStyle=orthogonalEdgeStyle;rounded=0;orthogonalLoop=1;jettySize=auto;html=1;" edge="1" parent="1" source="l1szmI_GFWI639Pi0zfL-52" target="l1szmI_GFWI639Pi0zfL-54">
          <mxGeometry relative="1" as="geometry" />
        </mxCell>
        <mxCell id="l1szmI_GFWI639Pi0zfL-52" value="notFoundPage" style="shape=step;perimeter=stepPerimeter;whiteSpace=wrap;html=1;fixedSize=1;" vertex="1" parent="1">
          <mxGeometry x="1150" y="50" width="140" height="80" as="geometry" />
        </mxCell>
        <mxCell id="l1szmI_GFWI639Pi0zfL-54" value="404 Page" style="whiteSpace=wrap;html=1;" vertex="1" parent="1">
          <mxGeometry x="1380" y="60" width="120" height="60" as="geometry" />
        </mxCell>
        <mxCell id="l1szmI_GFWI639Pi0zfL-59" value="" style="edgeStyle=orthogonalEdgeStyle;rounded=0;orthogonalLoop=1;jettySize=auto;html=1;" edge="1" parent="1" source="l1szmI_GFWI639Pi0zfL-56" target="l1szmI_GFWI639Pi0zfL-58">
          <mxGeometry relative="1" as="geometry" />
        </mxCell>
        <mxCell id="l1szmI_GFWI639Pi0zfL-56" value="createWallet" style="shape=hexagon;perimeter=hexagonPerimeter2;whiteSpace=wrap;html=1;fixedSize=1;" vertex="1" parent="1">
          <mxGeometry x="1300" y="505" width="120" height="80" as="geometry" />
        </mxCell>
        <mxCell id="l1szmI_GFWI639Pi0zfL-61" value="" style="edgeStyle=orthogonalEdgeStyle;rounded=0;orthogonalLoop=1;jettySize=auto;html=1;" edge="1" parent="1" source="l1szmI_GFWI639Pi0zfL-58" target="l1szmI_GFWI639Pi0zfL-60">
          <mxGeometry relative="1" as="geometry" />
        </mxCell>
        <mxCell id="l1szmI_GFWI639Pi0zfL-58" value="createMonthlyRevenue" style="shape=hexagon;perimeter=hexagonPerimeter2;whiteSpace=wrap;html=1;fixedSize=1;" vertex="1" parent="1">
          <mxGeometry x="1500" y="502.5" width="150" height="85" as="geometry" />
        </mxCell>
        <mxCell id="l1szmI_GFWI639Pi0zfL-60" value="createMonthlyExpenses" style="shape=hexagon;perimeter=hexagonPerimeter2;whiteSpace=wrap;html=1;fixedSize=1;" vertex="1" parent="1">
          <mxGeometry x="1730" y="502.5" width="150" height="85" as="geometry" />
        </mxCell>
      </root>
    </mxGraphModel>
  </diagram>
</mxfile>
